inDegrees=no
num_controls=7
num_derivatives=13
num_iterations=88
num_multipliers=7
num_parameters=0
num_slacks=7
num_states=26
objective=0.444948
objective_accelerations=0.058339
objective_balance=0.003559
objective_effort=0.023205
objective_height=0.354366
objective_ligament=0.005478
solver_duration=1268.173134
status=Solve_Succeeded
success=true
DataType=double
version=3
OpenSimVersion=4.5
endheader
time	/jointset/ground_pelvis/pelvis_tilt/value	/jointset/ground_pelvis/pelvis_tx/value	/jointset/ground_pelvis/pelvis_ty/value	/jointset/hip_l/hip_flexion_l/value	/jointset/hip_l/hip_adduction_l/value	/jointset/hip_l/hip_rotation_l/value	/jointset/back/lumbar_extension/value	/jointset/patellofemoral_l/patellar_flexion_l/value	/jointset/knee_l/knee_flexion_l/value	/jointset/knee_l/knee_adduction_l/value	/jointset/knee_l/knee_rotation_l/value	/jointset/ankle_l/ankle_angle_l/value	/jointset/subtalar_l/subtalar_angle_l/value	/jointset/ground_pelvis/pelvis_tilt/speed	/jointset/ground_pelvis/pelvis_tx/speed	/jointset/ground_pelvis/pelvis_ty/speed	/jointset/hip_l/hip_flexion_l/speed	/jointset/hip_l/hip_adduction_l/speed	/jointset/hip_l/hip_rotation_l/speed	/jointset/back/lumbar_extension/speed	/jointset/patellofemoral_l/patellar_flexion_l/speed	/jointset/knee_l/knee_flexion_l/speed	/jointset/knee_l/knee_adduction_l/speed	/jointset/knee_l/knee_rotation_l/speed	/jointset/ankle_l/ankle_angle_l/speed	/jointset/subtalar_l/subtalar_angle_l/speed	/forceset/tau_hip_flexion_l	/forceset/tau_hip_adduction_l	/forceset/tau_hip_rotation_l	/forceset/tau_knee_flexion_l	/forceset/tau_ankle_angle_l	/forceset/tau_subtalar_angle_l	/forceset/tau_lumbar_extension	lambda_cid13_p0	lambda_cid13_p1	lambda_cid13_p2	lambda_cid13_p3	lambda_cid13_p4	lambda_cid13_p5	lambda_cid14_p0	/jointset/ground_pelvis/pelvis_tilt/accel	/jointset/ground_pelvis/pelvis_tx/accel	/jointset/ground_pelvis/pelvis_ty/accel	/jointset/hip_l/hip_flexion_l/accel	/jointset/hip_l/hip_adduction_l/accel	/jointset/hip_l/hip_rotation_l/accel	/jointset/back/lumbar_extension/accel	/jointset/patellofemoral_l/patellar_flexion_l/accel	/jointset/knee_l/knee_flexion_l/accel	/jointset/knee_l/knee_adduction_l/accel	/jointset/knee_l/knee_rotation_l/accel	/jointset/ankle_l/ankle_angle_l/accel	/jointset/subtalar_l/subtalar_angle_l/accel	gamma_cid13_p0	gamma_cid13_p1	gamma_cid13_p2	gamma_cid13_p3	gamma_cid13_p4	gamma_cid13_p5	gamma_cid14_p0
0.5	-0.3408995039266385	-0.04171711590167926	0.7572073220018318	1.111976247756447	-0.435975373029732	-0.219104489412615	-0.2540517422263672	0.816744297761906	0.8167442977618462	-0.1236484073762385	-0.1576719030426496	0.107247819442565	-0.03194793287023714	-0.7743192265431922	-0.2109434351927893	-0.5427824600672237	2.502078623834751	-0.20546459770919	0.7488142670452878	-0.1182473580616536	2.02013778889752	2.020137788897636	0.1381850287950951	-0.09014911672709819	0.4674262101655449	0.004295495652458881	-0.1668506653674375	0.01550850353167079	-0.011814167227194	-0.2280930491703392	0.08079430238761655	0.04365339290724731	0.1659134908709102	-6.82788457336038	-20.80335248279268	6.453342365985993	-9.658544711628863	-522.2845966225281	-62.97969351939706	-24.6570659357672	0.7995189194456275	0.6747328545152359	-0.4584116817976845	-1.437927894942963	0.7336339356619854	-0.2307186271274402	1.090632257286436	-1.271987472333369	-1.271987472333376	0.0874180956605846	0.1635904056631543	-0.4361570697452966	0.5767199574140636	-5.877665318396507e-07	-4.33199949884947e-07	2.987252515834852e-06	1.706106465895649e-07	-6.694893373521612e-07	6.65971652249168e-08	-4.781654007021796e-07
0.51	-0.3486008285484434	-0.04379258132886044	0.7517578156050392	1.136920149304955	-0.4379945118992954	-0.2116265086663654	-0.2551808916098553	0.8368787668849027	0.8368787668848916	-0.1222667560846133	-0.1585646067220019	0.1118989636037434	-0.03187815170608539	-0.7658339661569716	-0.2041340850775143	-0.5469978763359499	2.48634974547388	-0.1983461527146429	0.7466810760871079	-0.1076234071505287	2.006470670030852	2.006470670030839	0.1381365217737642	-0.08837957485983609	0.4627204967629045	0.009646621151256855	-0.1725041381441939	0.01637117178577898	-0.01184276333728397	-0.2307127489284415	0.07997392458667676	0.04396247294307518	0.1702348188737075	-7.302767146770905	-20.83414979321822	6.435077987664467	-9.484876979641829	-526.0787050945615	-62.58587607383849	-23.72395997530918	0.8897167576336572	0.686407510210628	-0.3850964263025194	-1.693244282475941	0.7031560664413865	-0.2201582625006508	1.042143230864024	-1.456783966531193	-1.456783966550536	-0.0522401172653471	0.1860495583314153	-0.5000887454465561	0.5118995445999605	-5.748262319716509e-07	-3.488475246439042e-07	3.020397719331966e-06	1.898169923638537e-07	-6.452642138035481e-07	1.438362158019602e-07	-4.722947635212005e-07
0.52	-0.3562139631345024	-0.04579947897085349	0.7462697570801807	1.161696186774689	-0.4399420250618952	-0.204172967616166	-0.2562050281396657	0.8568680228446881	0.8568680228447341	-0.1208858408664369	-0.159439132286485	0.1165005885769102	-0.03175534114724818	-0.7566812193938105	-0.1972298781551643	-0.5504928856803777	2.468505808080339	-0.1911394563164818	0.7439263278354304	-0.09724478732586064	1.991095156256279	1.991095156256137	0.1380378141030154	-0.08651349374962469	0.4575223725633383	0.01490137458954686	-0.1781576109209716	0.01723384003988272	-0.01187135944719593	-0.2333324486865553	0.07915354678573654	0.04427155297889478	0.1745561468764847	-7.780510633095328	-20.86494154905728	6.41738041826865	-9.350513172407624	-529.9490862761933	-62.25410972025655	-22.79231822835592	0.9330161948337293	0.6937042159302241	-0.3143302969380645	-1.860939701476878	0.7512842163848117	-0.3550300858269728	1.041566039995054	-1.613666453914427	-1.613666453914369	0.07737796577698634	0.1828982542530174	-0.5346392291304679	0.557445545312466	-5.616791838470397e-07	-2.943355154334993e-07	3.023517500728307e-06	2.031324699367816e-07	-6.228644155860223e-07	2.173397095987003e-07	-4.670525853122409e-07
0.53	-0.3637323288003275	-0.04773692865627045	0.7407503392415127	1.186283567290848	-0.4418170883763694	-0.196749853258398	-0.2571265559991361	0.8766953992873925	0.876695399287472	-0.1195061907014892	-0.1602945374634654	0.1210479696296616	-0.03158043506761152	-0.7468770814205195	-0.1902502487946973	-0.5532699167854613	2.448632073138476	-0.1838670779599489	0.7405994605732349	-0.08710914389674072	1.974129811994946	1.974129811994782	0.1378834383485459	-0.08456332871545286	0.4518890924443452	0.0200625366597237	-0.1838744050703799	0.0179795084205507	-0.01182148772077999	-0.2356904572733028	0.07795598811343525	0.04449706031678812	0.1788806984217745	-8.376001420121213	-20.8336828701589	6.383919494730984	-9.064950091573875	-533.7298023496542	-61.85568981177757	-21.86408292337689	1.02126580395531	0.7016058414103377	-0.2413969469005096	-2.101407647190529	0.7157710351065966	-0.3364792019103444	0.9923095951045808	-1.775423595941333	-1.775423595944646	-0.06310796426440136	0.2023177935707396	-0.5873690005089522	0.492545196203923	-5.435830808404306e-07	-1.973553543409201e-07	3.045854948329589e-06	2.284567267630788e-07	-6.015764577437584e-07	2.959282917468162e-07	-4.559553172768882e-07
0.54	-0.3711492224453455	-0.0496042793390217	0.7352067496058723	1.210662047006257	-0.4436193166293138	-0.1893630004043484	-0.2579481782041694	0.8963456312507487	0.8963456312508544	-0.118128336817731	-0.1611301925569829	0.1255370785617785	-0.03135449863560634	-0.7363868152320858	-0.183210077622023	-0.5553272450748302	2.426725647930633	-0.1765724440106567	0.7366740270912618	-0.07726365643825288	1.955666260385668	1.955666260385482	0.1376785578658599	-0.08256347705842183	0.4458679484363431	0.02510744506324643	-0.1895911992197848	0.01872517680123148	-0.01177161599446348	-0.2380484658600437	0.07675842944113839	0.04472256765469951	0.1832052499670619	-8.974069250175916	-20.80240246947081	6.350947570635115	-8.819144433020069	-537.582411651861	-61.51841607086386	-20.94398818364676	1.070241837862253	0.7058125783716778	-0.1703897337951289	-2.26747775467285	0.7557353349366832	-0.4747433297824501	0.9835348458686414	-1.9133079235033	-1.913307923503341	0.06727702013370646	0.192835578824859	-0.6122120069322671	0.5341948119816423	-5.200114277516116e-07	-5.338915286806218e-08	3.089454494710804e-06	2.670672925505505e-07	-5.815186211677417e-07	3.80142929092199e-07	-4.383800775187175e-07
0.55	-0.3784581248593342	-0.05140105061760034	0.7296462414097414	1.234811659377663	-0.4453483447466176	-0.1820179677612544	-0.2586729669889373	0.9158035606426304	0.9158035606426473	-0.1167528778978326	-0.1619451701168713	0.1299639339787366	-0.03107859829593707	-0.7252993024659343	-0.1761455266842702	-0.5566469012401448	2.402869344035068	-0.1692273026814775	0.73222922001917	-0.0677727998042514	1.935648913422021	1.935648913421815	0.1374016336396659	-0.08042211654063203	0.439425002405218	0.03004771446186158	-0.1949069680369138	0.01924814264623053	-0.01167433646732408	-0.2408649022021972	0.07599952050434197	0.04467894436530209	0.1871616955608347	-9.443078416949659	-20.66841728661609	6.291983707323793	-8.507625910083711	-541.4464154432103	-61.05148821131395	-20.03562977342362	1.142088765216424	0.706631688405853	-0.09374373681527691	-2.493913305695129	0.7243760333131997	-0.4452104737594804	0.9200561788298134	-2.086468009368255	-2.086468009371143	-0.07682386457926588	0.2268991597065114	-0.6720230128194097	0.4698385086092641	-4.945436519020149e-07	4.041031631510183e-08	3.071787371163264e-06	2.882589681003147e-07	-5.546275487798704e-07	4.50914102530927e-07	-4.215611085667974e-07
